<?xml version="1.0" encoding="UTF-8" standalone="no"?>
<!-- Created with Inkscape (http://www.inkscape.org/) -->

<svg
   sodipodi:docname="annunciatorD.svg"
   inkscape:version="1.4 (86a8ad7, 2024-10-11)"
   id="svg8"
   version="1.1"
   viewBox="0 0 508 254"
   height="10in"
   width="20in"
   xmlns:inkscape="http://www.inkscape.org/namespaces/inkscape"
   xmlns:sodipodi="http://sodipodi.sourceforge.net/DTD/sodipodi-0.dtd"
   xmlns="http://www.w3.org/2000/svg"
   xmlns:svg="http://www.w3.org/2000/svg"
   xmlns:rdf="http://www.w3.org/1999/02/22-rdf-syntax-ns#"
   xmlns:cc="http://creativecommons.org/ns#"
   xmlns:dc="http://purl.org/dc/elements/1.1/">
  <defs
     id="defs2" />
  <sodipodi:namedview
     id="base"
     pagecolor="#ffffff"
     bordercolor="#666666"
     borderopacity="1.0"
     inkscape:pageopacity="0.0"
     inkscape:pageshadow="2"
     inkscape:zoom="0.77508116"
     inkscape:cx="269.00409"
     inkscape:cy="551.55514"
     inkscape:document-units="in"
     inkscape:current-layer="layer1"
     showgrid="true"
     units="in"
     inkscape:window-width="1920"
     inkscape:window-height="1017"
     inkscape:window-x="-8"
     inkscape:window-y="-8"
     inkscape:window-maximized="1"
     inkscape:showpageshadow="2"
     inkscape:pagecheckerboard="0"
     inkscape:deskcolor="#d1d1d1">
    <inkscape:grid
       type="xygrid"
       id="grid4064"
       units="in"
       spacingx="3.175"
       spacingy="3.175"
       empspacing="4"
       snapvisiblegridlinesonly="true"
       enabled="true"
       originx="0"
       originy="0" />
  </sodipodi:namedview>
  <metadata
     id="metadata5">
    <rdf:RDF>
      <cc:Work
         rdf:about="">
        <dc:format>image/svg+xml</dc:format>
        <dc:type
           rdf:resource="http://purl.org/dc/dcmitype/StillImage" />
        <dc:title />
      </cc:Work>
    </rdf:RDF>
  </metadata>
  <g
     inkscape:label="Layer 1"
     inkscape:groupmode="layer"
     id="layer1"
     transform="translate(0,-43)">
    <path
       inkscape:connector-curvature="0"
       id="path1"
       style="fill:none;stroke:#000000;stroke-width:0.0254"
       d="m 102.5914,60.355246 a 1.9641032,1.870559 0 0 1 -1.9641,1.870559 1.9641032,1.870559 0 0 1 -1.964106,-1.870559 1.9641032,1.870559 0 0 1 1.964106,-1.870559 1.9641032,1.870559 0 0 1 1.9641,1.870559 z" />
    <path
       inkscape:connector-curvature="0"
       id="ellipse1"
       style="fill:none;stroke:#000000;stroke-width:0.0254"
       d="m 102.5914,136.68753 a 1.9641032,1.870559 0 0 1 -1.9641,1.87056 1.9641032,1.870559 0 0 1 -1.964106,-1.87056 1.9641032,1.870559 0 0 1 1.964106,-1.87056 1.9641032,1.870559 0 0 1 1.9641,1.87056 z" />
    <path
       inkscape:connector-curvature="0"
       id="ellipse2"
       style="fill:none;stroke:#000000;stroke-width:0.0254"
       d="m 177.73306,136.55524 a 1.9641032,1.870559 0 0 1 -1.9641,1.87056 1.9641032,1.870559 0 0 1 -1.9641,-1.87056 1.9641032,1.870559 0 0 1 1.9641,-1.87056 1.9641032,1.870559 0 0 1 1.9641,1.87056 z" />
    <path
       inkscape:connector-curvature="0"
       id="ellipse3"
       style="fill:none;stroke:#000000;stroke-width:0.0254"
       d="m 177.60077,61.81045 a 1.9641032,1.870559 0 0 1 -1.9641,1.870559 1.9641032,1.870559 0 0 1 -1.96411,-1.870559 1.9641032,1.870559 0 0 1 1.96411,-1.870559 1.9641032,1.870559 0 0 1 1.9641,1.870559 z" />
    <path
       inkscape:connector-curvature="0"
       id="path3"
       style="fill:none;stroke:#000000;stroke-width:0.0254"
       d="m 147.2508,109.28341 a 8.1352224,8.0690765 0 0 1 -8.13522,8.06908 8.1352224,8.0690765 0 0 1 -8.13522,-8.06908 8.1352224,8.0690765 0 0 1 8.13522,-8.06908 8.1352224,8.0690765 0 0 1 8.13522,8.06908 z" />
    <path
       inkscape:connector-curvature="0"
       id="path4"
       style="fill:none;stroke:#000000;stroke-width:0.0254"
       d="m 142.08125,89.037503 a 3.1034077,3.1802917 0 0 1 -3.10341,3.180292 3.1034077,3.1802917 0 0 1 -3.1034,-3.180292 3.1034077,3.1802917 0 0 1 3.1034,-3.180292 3.1034077,3.1802917 0 0 1 3.10341,3.180292 z" />
    <path
       inkscape:connector-curvature="0"
       id="path5"
       style="fill:none;stroke:#000000;stroke-width:0.0254"
       d="m 193.02492,69.199044 a 2.5140371,2.3817458 0 0 1 -2.51404,2.381746 2.5140371,2.3817458 0 0 1 -2.51404,-2.381746 2.5140371,2.3817458 0 0 1 2.51404,-2.381746 2.5140371,2.3817458 0 0 1 2.51404,2.381746 z" />
    <path
       inkscape:connector-curvature="0"
       id="ellipse5"
       style="fill:none;stroke:#000000;stroke-width:0.0254"
       d="m 192.76033,129.39176 a 2.5140371,2.3817458 0 0 1 -2.51403,2.38174 2.5140371,2.3817458 0 0 1 -2.51404,-2.38174 2.5140371,2.3817458 0 0 1 2.51404,-2.38175 2.5140371,2.3817458 0 0 1 2.51403,2.38175 z" />
    <path
       inkscape:connector-curvature="0"
       id="ellipse6"
       style="fill:none;stroke:#000000;stroke-width:0.0254"
       d="m 253.21761,129.25946 a 2.5140371,2.3817458 0 0 1 -2.51403,2.38175 2.5140371,2.3817458 0 0 1 -2.51404,-2.38175 2.5140371,2.3817458 0 0 1 2.51404,-2.38175 2.5140371,2.3817458 0 0 1 2.51403,2.38175 z" />
    <path
       inkscape:connector-curvature="0"
       id="ellipse7"
       style="fill:none;stroke:#000000;stroke-width:0.0254"
       d="m 253.4822,69.066745 a 2.5140371,2.3817458 0 0 1 -2.51404,2.381746 2.5140371,2.3817458 0 0 1 -2.51403,-2.381746 2.5140371,2.3817458 0 0 1 2.51403,-2.381746 2.5140371,2.3817458 0 0 1 2.51404,2.381746 z" />
    <path
       inkscape:connector-curvature="0"
       id="rect7"
       style="fill:none;stroke:#000000;stroke-width:0.0254"
       d="m 182.3088,95.2605 h 1.85208 v 5.95313 h -1.85208 z" />
    <path
       inkscape:connector-curvature="0"
       id="rect8"
       style="fill:none;stroke:#000000;stroke-width:0.0254"
       d="m 189.07644,78.083353 h 1.81055 v 42.291797 h -1.81055 z" />
    <path
       inkscape:connector-curvature="0"
       id="rect9"
       style="fill:none;stroke:#000000;stroke-width:0.0254"
       d="m 195.44163,71.632982 h 1.80217 v 53.789368 h -1.80217 z" />
    <path
       inkscape:connector-curvature="0"
       id="rect10"
       style="fill:none;stroke:#000000;stroke-width:0.0254"
       d="m 201.89903,67.706957 h 1.79649 v 62.389783 h -1.79649 z" />
    <path
       inkscape:connector-curvature="0"
       id="rect11"
       style="fill:none;stroke:#000000;stroke-width:0.0254"
       d="m 208.16799,64.995661 h 1.79353 v 67.157579 h -1.79353 z" />
    <path
       inkscape:connector-curvature="0"
       id="rect12"
       style="fill:none;stroke:#000000;stroke-width:0.0254"
       d="m 214.34277,63.312708 h 1.79183 v 69.962212 h -1.79183 z" />
    <path
       inkscape:connector-curvature="0"
       id="rect13"
       style="fill:none;stroke:#000000;stroke-width:0.0254"
       d="m 220.61114,62.284609 h 1.79007 v 72.953861 h -1.79007 z" />
    <path
       inkscape:connector-curvature="0"
       id="rect14"
       style="fill:none;stroke:#000000;stroke-width:0.0254"
       d="m 227.15835,63.219164 h 1.79184 v 69.962216 h -1.79184 z" />
    <path
       inkscape:connector-curvature="0"
       id="rect15"
       style="fill:none;stroke:#000000;stroke-width:0.0254"
       d="m 233.05077,65.182749 h 1.79354 v 67.157581 h -1.79354 z" />
    <path
       inkscape:connector-curvature="0"
       id="rect16"
       style="fill:none;stroke:#000000;stroke-width:0.0254"
       d="m 239.69067,68.455042 h 1.79703 v 61.548418 h -1.79703 z" />
    <path
       inkscape:connector-curvature="0"
       id="rect17"
       style="fill:none;stroke:#000000;stroke-width:0.0254"
       d="m 246.23528,73.22233 h 1.80399 v 51.17195 h -1.80399 z" />
    <path
       inkscape:connector-curvature="0"
       id="rect18"
       style="fill:none;stroke:#000000;stroke-width:0.0254"
       d="m 252.21914,77.709467 h 1.80997 v 43.039573 h -1.80997 z" />
    <path
       inkscape:connector-curvature="0"
       id="rect19"
       style="fill:none;stroke:#000000;stroke-width:0.0254"
       d="m 258.64098,95.2605 h 1.85209 v 5.95313 h -1.85209 z" />
    <path
       inkscape:connector-curvature="0"
       id="path65"
       inkscape:label="part"
       style="fill:none;stroke:#000000;stroke-width:0.0254;stroke-miterlimit:4;stroke-dasharray:none"
       d="m 91.679059,163.65 h 2.37565 v -3.302 h 5.08 v 3.302 h 5.677641 v -3.302 h 5.08 v 3.302 H 115.57 v -3.302 h 5.08 v 3.302 h 5.67765 v -3.302 h 5.08 v 3.302 h 5.67765 v -3.302 h 5.08 v 3.302 h 5.67764 v -3.302 h 5.08 v 3.302 h 5.67765 v -3.302 h 5.08 v 3.302 h 5.67765 v -3.302 h 5.08 v 3.302 h 5.67764 v -3.302 h 5.08 v 3.302 h 5.67765 v -3.302 h 5.08 v 3.302 h 5.67765 v -3.302 h 5.08 v 3.302 h 5.67764 v -3.302 h 5.08 v 3.302 h 5.67765 v -3.302 h 5.08 v 3.302 h 5.67765 v -3.302 h 5.08 v 3.302 h 5.67765 v -3.302 h 5.08 v 3.302 h 5.67764 v -3.302 h 5.08 v 3.302 h 5.67765" />
    <path
       inkscape:connector-curvature="0"
       id="path67"
       inkscape:label="part"
       style="fill:none;stroke:#000000;stroke-width:0.0254;stroke-miterlimit:4;stroke-dasharray:none"
       d="m 266.17706,163.65 v 3.22943 h -3.302 v 5.08 h 3.302 v 6.53143 h -3.302 v 5.08 h 3.302 v 6.53143 h -3.302 v 5.08 h 3.302 v 6.53142 h -3.302 v 5.08 h 3.302 v 6.53143 h -3.302 v 5.08 h 3.302 v 6.53143 h -3.302 v 5.08 h 3.302 v 6.53143" />
    <path
       inkscape:connector-curvature="0"
       id="path69"
       inkscape:label="part"
       style="fill:none;stroke:#000000;stroke-width:0.0254;stroke-miterlimit:4;stroke-dasharray:none"
       d="m 266.17706,236.548 h -5.67765 v -3.302 h -5.08 v 3.302 h -5.67764 v -3.302 h -5.08 v 3.302 h -5.67765 v -3.302 h -5.08 v 3.302 h -5.67765 v -3.302 h -5.08 v 3.302 h -5.67765 v -3.302 h -5.08 v 3.302 h -5.67764 v -3.302 h -5.08 v 3.302 h -5.67765 v -3.302 h -5.08 v 3.302 h -5.67765 v -3.302 h -5.08 v 3.302 h -5.67764 v -3.302 h -5.08 v 3.302 h -5.67765 v -3.302 h -5.08 v 3.302 h -5.67765 v -3.302 h -5.08 v 3.302 h -5.67764 v -3.302 h -5.08 v 3.302 h -5.67765 v -3.302 h -5.08 v 3.302 H 120.65 v -3.302 h -5.08 v 3.302 h -5.67765 v -3.302 h -5.08 v 3.302 h -5.677641 v -3.302 h -5.08 v 3.302 h -2.37565" />
    <path
       inkscape:connector-curvature="0"
       id="path71"
       inkscape:label="part"
       style="fill:none;stroke:#000000;stroke-width:0.0254;stroke-miterlimit:4;stroke-dasharray:none"
       d="m 91.679059,236.548 v -6.53143 h -3.302 v -5.08 h 3.302 v -6.53143 h -3.302 v -5.08 h 3.302 v -6.53143 h -3.302 v -5.08 h 3.302 v -6.53142 h -3.302 v -5.08 h 3.302 v -6.53143 h -3.302 v -5.08 h 3.302 v -6.53143 h -3.302 v -5.08 h 3.302 V 163.65" />
    <path
       inkscape:connector-curvature="0"
       id="path73"
       inkscape:label="part"
       style="fill:none;stroke:#000000;stroke-width:0.0254;stroke-miterlimit:4;stroke-dasharray:none"
       d="m 3.265714,49.35 h 6.531429 v -3.302 h 5.08 v 3.302 h 6.531428 v -3.302 h 5.08 V 49.35 H 33.02 v -3.302 h 5.08 v 3.302 h 6.531428 v -3.302 h 5.08 v 3.302 h 6.531429 v -3.302 h 5.08 v 3.302 h 6.531428 v -3.302 h 5.08 v 3.302 h 3.229429" />
    <path
       inkscape:connector-curvature="0"
       id="path75"
       inkscape:label="part"
       style="fill:none;stroke:#000000;stroke-width:0.0254;stroke-miterlimit:4;stroke-dasharray:none"
       d="m 76.163714,49.35 v 2.286 h 3.302 v 5.08 h -3.302 v 5.588 h 3.302 v 5.08 h -3.302 v 5.588 h 3.302 v 5.08 h -3.302 v 5.588 h 3.302 v 5.08 h -3.302 v 5.588 h 3.302 v 5.08 h -3.302 v 5.588 h 3.302 v 5.08 h -3.302 v 5.588 h 3.302 v 5.08 h -3.302 v 5.588 h 3.302 v 5.08 h -3.302 v 5.588 h 3.302 v 5.08 h -3.302 v 5.588" />
    <path
       inkscape:connector-curvature="0"
       id="path77"
       inkscape:label="part"
       style="fill:none;stroke:#000000;stroke-width:0.0254;stroke-miterlimit:4;stroke-dasharray:none"
       d="m 76.163714,147.648 h -3.229429 v -3.302 h -5.08 v 3.302 h -6.531428 v -3.302 h -5.08 v 3.302 h -6.531429 v -3.302 h -5.08 v 3.302 H 38.1 v -3.302 h -5.08 v 3.302 h -6.531429 v -3.302 h -5.08 v 3.302 h -6.531428 v -3.302 h -5.08 v 3.302 H 3.265714" />
    <path
       inkscape:connector-curvature="0"
       id="path79"
       inkscape:label="part"
       style="fill:none;stroke:#000000;stroke-width:0.0254;stroke-miterlimit:4;stroke-dasharray:none"
       d="m 3.265714,147.648 v -5.588 h 3.302 v -5.08 h -3.302 v -5.588 h 3.302 v -5.08 h -3.302 v -5.588 h 3.302 v -5.08 h -3.302 v -5.588 h 3.302 v -5.08 h -3.302 v -5.588 h 3.302 v -5.08 h -3.302 V 88.72 h 3.302 v -5.08 h -3.302 v -5.588 h 3.302 v -5.08 h -3.302 v -5.588 h 3.302 v -5.08 h -3.302 v -5.588 h 3.302 v -5.08 h -3.302 V 49.35" />
    <path
       inkscape:connector-curvature="0"
       id="path81"
       inkscape:label="part"
       style="fill:none;stroke:#000000;stroke-width:0.0254;stroke-miterlimit:4;stroke-dasharray:none"
       d="m 90.692941,52.525 h 5.67765 v -3.302 h 5.079999 v 3.302 h 5.67764 v -3.302 h 5.08 v 3.302 h 5.67765 v -3.302 h 5.08 v 3.302 h 5.67765 v -3.302 h 5.08 v 3.302 h 5.67765 v -3.302 h 5.08 v 3.302 h 5.67764 v -3.302 h 5.08 v 3.302 h 5.67765 v -3.302 h 5.08 v 3.302 h 5.67765 v -3.302 h 5.08 v 3.302 h 5.67764 v -3.302 h 5.08 v 3.302 h 5.67765 v -3.302 h 5.08 v 3.302 h 5.67765 v -3.302 h 5.08 v 3.302 h 5.67764 v -3.302 h 5.08 v 3.302 h 5.67765 v -3.302 h 5.08 v 3.302 H 236.22 v -3.302 h 5.08 v 3.302 h 5.67765 v -3.302 h 5.08 v 3.302 h 5.67764 v -3.302 h 5.08 v 3.302 h 2.37565" />
    <path
       inkscape:connector-curvature="0"
       id="path83"
       inkscape:label="part"
       style="fill:none;stroke:#000000;stroke-width:0.0254;stroke-miterlimit:4;stroke-dasharray:none"
       d="m 265.19094,52.525 v 2.286 h 3.302 v 5.08 h -3.302 v 5.588 h 3.302 v 5.08 h -3.302 v 5.588 h 3.302 v 5.08 h -3.302 v 5.588 h 3.302 v 5.08 h -3.302 v 5.588 h 3.302 v 5.08 h -3.302 v 5.588 h 3.302 v 5.08 h -3.302 v 5.588 h 3.302 v 5.08 h -3.302 v 5.588 h 3.302 v 5.08 h -3.302 v 5.588 h 3.302 v 5.08 h -3.302 v 5.588" />
    <path
       inkscape:connector-curvature="0"
       id="path85"
       inkscape:label="part"
       style="fill:none;stroke:#000000;stroke-width:0.0254;stroke-miterlimit:4;stroke-dasharray:none"
       d="m 265.19094,150.823 h -2.37565 v -3.302 h -5.08 v 3.302 h -5.67764 v -3.302 h -5.08 v 3.302 H 241.3 v -3.302 h -5.08 v 3.302 h -5.67765 v -3.302 h -5.08 v 3.302 h -5.67765 v -3.302 h -5.08 v 3.302 h -5.67764 v -3.302 h -5.08 v 3.302 h -5.67765 v -3.302 h -5.08 v 3.302 h -5.67765 v -3.302 h -5.08 v 3.302 h -5.67764 v -3.302 h -5.08 v 3.302 h -5.67765 v -3.302 h -5.08 v 3.302 h -5.67765 v -3.302 h -5.08 v 3.302 h -5.67764 v -3.302 h -5.08 v 3.302 h -5.67765 v -3.302 h -5.08 v 3.302 h -5.67765 v -3.302 h -5.08 v 3.302 h -5.67765 v -3.302 h -5.08 v 3.302 h -5.67764 v -3.302 h -5.079999 v 3.302 h -5.67765" />
    <path
       inkscape:connector-curvature="0"
       id="path87"
       inkscape:label="part"
       style="fill:none;stroke:#000000;stroke-width:0.0254;stroke-miterlimit:4;stroke-dasharray:none"
       d="m 90.692941,150.823 v -5.588 h 3.302 v -5.08 h -3.302 v -5.588 h 3.302 v -5.08 h -3.302 v -5.588 h 3.302 v -5.08 h -3.302 v -5.588 h 3.302 v -5.08 h -3.302 v -5.588 h 3.302 v -5.08 h -3.302 v -5.588 h 3.302 v -5.08 h -3.302 v -5.588 h 3.302 v -5.08 h -3.302 v -5.588 h 3.302 v -5.08 h -3.302 v -5.588 h 3.302 v -5.08 h -3.302 v -2.286" />
    <path
       inkscape:connector-curvature="0"
       id="rect310"
       d="m 15.848763,157.06138 h 19.050001 v 85.725 H 15.848763 Z"
       style="fill:none;fill-rule:evenodd;stroke:#000000;stroke-width:0.0254;stroke-miterlimit:4;stroke-dasharray:none;stroke-opacity:1" />
    <g
       id="g185"
       transform="translate(-326.93429,23.823)"
       style="fill:none;stroke:#000000;stroke-opacity:1;stroke-width:0.0254;stroke-miterlimit:4;stroke-dasharray:none">
      <path
         d="m 330.2,127 h 6.53143 v 3.302 h 5.08 V 127 h 6.53143 v 3.302 h 5.08 V 127 h 6.53143 v 3.302 h 5.08 V 127 h 6.53142 v 3.302 h 5.08 V 127 h 6.53143 v 3.302 h 5.08 V 127 h 6.53143 v 3.302 h 5.08 V 127 h 3.22943"
         style="fill:none;stroke:#000000;stroke-opacity:1;stroke-width:0.0254;stroke-miterlimit:4;stroke-dasharray:none"
         inkscape:label="part"
         id="path89"
         inkscape:connector-curvature="0" />
    </g>
    <path
       inkscape:connector-curvature="0"
       id="path91"
       inkscape:label="part"
       style="fill:none;stroke:#000000;stroke-width:0.0254;stroke-miterlimit:4;stroke-dasharray:none"
       d="m 76.16371,150.823 v 5.588 h 3.302 v 5.08 h -3.302 v 5.588 h 3.302 v 5.08 h -3.302 v 5.588 h 3.302 v 5.08 h -3.302 v 5.588 h 3.302 v 5.08 h -3.302 v 5.588 h 3.302 v 5.08 h -3.302 v 5.588 h 3.302 v 5.08 h -3.302 v 5.588 h 3.302 v 5.08 h -3.302 v 5.588 h 3.302 v 5.08 h -3.302 v 5.588 h 3.302 v 5.08 h -3.302 v 2.286" />
    <path
       inkscape:connector-curvature="0"
       id="path93"
       inkscape:label="part"
       style="fill:none;stroke:#000000;stroke-width:0.0254;stroke-miterlimit:4;stroke-dasharray:none"
       d="m 76.16371,249.121 h -3.22943 v 3.302 h -5.08 v -3.302 h -6.53143 v 3.302 h -5.08 v -3.302 h -6.53143 v 3.302 h -5.08 v -3.302 H 38.1 v 3.302 h -5.08 v -3.302 h -6.53143 v 3.302 h -5.08 v -3.302 h -6.53143 v 3.302 h -5.08 v -3.302 H 3.26571" />
    <path
       inkscape:connector-curvature="0"
       id="path95"
       inkscape:label="part"
       style="fill:none;stroke:#000000;stroke-width:0.0254;stroke-miterlimit:4;stroke-dasharray:none"
       d="m 3.26571,249.121 v -2.286 h 3.302 v -5.08 h -3.302 v -5.588 h 3.302 v -5.08 h -3.302 v -5.588 h 3.302 v -5.08 h -3.302 v -5.588 h 3.302 v -5.08 h -3.302 v -5.588 h 3.302 v -5.08 h -3.302 v -5.588 h 3.302 v -5.08 h -3.302 v -5.588 h 3.302 v -5.08 h -3.302 v -5.588 h 3.302 v -5.08 h -3.302 v -5.588 h 3.302 v -5.08 h -3.302 v -5.588" />
    <path
       inkscape:connector-curvature="0"
       id="path97"
       inkscape:label="part"
       style="fill:none;stroke:#000000;stroke-width:0.0254;stroke-miterlimit:4;stroke-dasharray:none"
       d="m 278.16735,138.25 h 5.67765 v 3.302 h 5.08 v -3.302 h 5.67764 v 3.302 h 5.08 v -3.302 h 5.67765 v 3.302 h 5.08 v -3.302 h 5.67765 v 3.302 h 5.08 v -3.302 h 5.67765 v 3.302 h 5.08 v -3.302 h 5.67764 v 3.302 h 5.08 v -3.302 h 5.67765 v 3.302 h 5.08 v -3.302 h 5.67765 v 3.302 h 5.08 v -3.302 h 5.67764 v 3.302 h 5.08 v -3.302 h 5.67765 v 3.302 h 5.08 v -3.302 h 5.67765 v 3.302 h 5.08 v -3.302 h 5.67764 v 3.302 h 5.08 v -3.302 h 5.67765 v 3.302 h 5.08 v -3.302 h 5.67765 v 3.302 h 5.08 v -3.302 h 5.67765 v 3.302 h 5.08 v -3.302 h 5.67764 v 3.302 h 5.08 v -3.302 h 2.37565" />
    <path
       inkscape:connector-curvature="0"
       id="path99"
       inkscape:label="part"
       style="fill:none;stroke:#000000;stroke-width:0.0254;stroke-miterlimit:4;stroke-dasharray:none"
       d="m 452.66535,138.25 v 5.588 h 3.302 v 5.08 h -3.302 v 5.588 h 3.302 v 5.08 h -3.302 v 5.588 h 3.302 v 5.08 h -3.302 v 5.588 h 3.302 v 5.08 h -3.302 v 5.588 h 3.302 v 5.08 h -3.302 v 5.588 h 3.302 v 5.08 h -3.302 v 5.588 h 3.302 v 5.08 h -3.302 v 5.588 h 3.302 v 5.08 h -3.302 v 5.588 h 3.302 v 5.08 h -3.302 v 2.286" />
    <path
       inkscape:connector-curvature="0"
       id="path101"
       inkscape:label="part"
       style="fill:none;stroke:#000000;stroke-width:0.0254;stroke-miterlimit:4;stroke-dasharray:none"
       d="m 452.66535,236.548 h -2.37565 v 3.302 h -5.08 v -3.302 h -5.67764 v 3.302 h -5.08 v -3.302 h -5.67765 v 3.302 h -5.08 v -3.302 h -5.67765 v 3.302 h -5.08 v -3.302 h -5.67765 v 3.302 h -5.08 v -3.302 h -5.67764 v 3.302 h -5.08 v -3.302 h -5.67765 v 3.302 h -5.08 v -3.302 h -5.67765 v 3.302 h -5.08 v -3.302 h -5.67764 v 3.302 h -5.08 v -3.302 h -5.67765 v 3.302 h -5.08 v -3.302 h -5.67765 v 3.302 h -5.08 v -3.302 h -5.67764 v 3.302 h -5.08 v -3.302 h -5.67765 v 3.302 h -5.08 v -3.302 h -5.67765 v 3.302 h -5.08 v -3.302 h -5.67765 v 3.302 h -5.08 v -3.302 H 288.925 v 3.302 h -5.08 v -3.302 h -5.67765" />
    <path
       inkscape:connector-curvature="0"
       id="path103"
       inkscape:label="part"
       style="fill:none;stroke:#000000;stroke-width:0.0254;stroke-miterlimit:4;stroke-dasharray:none"
       d="m 278.16735,236.548 v -2.286 h 3.302 v -5.08 h -3.302 v -5.588 h 3.302 v -5.08 h -3.302 v -5.588 h 3.302 v -5.08 h -3.302 v -5.588 h 3.302 v -5.08 h -3.302 v -5.588 h 3.302 v -5.08 h -3.302 v -5.588 h 3.302 v -5.08 h -3.302 v -5.588 h 3.302 v -5.08 h -3.302 v -5.588 h 3.302 v -5.08 h -3.302 v -5.588 h 3.302 v -5.08 h -3.302 v -5.588" />
    <path
       inkscape:connector-curvature="0"
       id="path105"
       inkscape:label="part"
       style="fill:none;stroke:#000000;stroke-width:0.0254;stroke-miterlimit:4;stroke-dasharray:none"
       d="m 281.00618,52.652 h 5.67765 V 49.35 h 5.08 v 3.302 h 5.67764 V 49.35 h 5.08 v 3.302 h 5.67765 V 49.35 h 5.08 v 3.302 h 5.67765 V 49.35 h 5.08 v 3.302 h 5.67765 V 49.35 h 5.08 v 3.302 h 5.67764 V 49.35 h 5.08 v 3.302 h 5.67765 V 49.35 h 5.08 v 3.302 h 5.67765 V 49.35 h 5.08 v 3.302 H 372.745 V 49.35 h 5.08 v 3.302 h 5.67765 V 49.35 h 5.08 v 3.302 h 5.67765 V 49.35 h 5.08 v 3.302 h 5.67764 V 49.35 h 5.08 v 3.302 h 5.67765 V 49.35 h 5.08 v 3.302 h 5.67765 V 49.35 h 5.08 v 3.302 h 5.67765 V 49.35 h 5.08 v 3.302 h 5.67764 V 49.35 h 5.08 v 3.302 h 2.37565" />
    <path
       inkscape:connector-curvature="0"
       id="path107"
       inkscape:label="part"
       style="fill:none;stroke:#000000;stroke-width:0.0254;stroke-miterlimit:4;stroke-dasharray:none"
       d="m 455.50418,52.652 v 3.229429 h 3.302 v 5.08 h -3.302 v 6.531428 h 3.302 v 5.08 h -3.302 v 6.531429 h 3.302 v 5.08 h -3.302 v 6.531428 h 3.302 v 5.08 h -3.302 v 6.531426 h 3.302 v 5.08 h -3.302 v 6.53143 h 3.302 v 5.08 h -3.302 V 125.55" />
    <path
       inkscape:connector-curvature="0"
       id="path109"
       inkscape:label="part"
       style="fill:none;stroke:#000000;stroke-width:0.0254;stroke-miterlimit:4;stroke-dasharray:none"
       d="m 455.50418,125.55 h -2.37565 v -3.302 h -5.08 v 3.302 h -5.67764 v -3.302 h -5.08 v 3.302 h -5.67765 v -3.302 h -5.08 v 3.302 h -5.67765 v -3.302 h -5.08 v 3.302 h -5.67765 v -3.302 h -5.08 v 3.302 h -5.67764 v -3.302 h -5.08 v 3.302 h -5.67765 v -3.302 h -5.08 v 3.302 H 377.825 v -3.302 h -5.08 v 3.302 h -5.67764 v -3.302 h -5.08 v 3.302 h -5.67765 v -3.302 h -5.08 v 3.302 h -5.67765 v -3.302 h -5.08 v 3.302 h -5.67764 v -3.302 h -5.08 v 3.302 h -5.67765 v -3.302 h -5.08 v 3.302 h -5.67765 v -3.302 h -5.08 v 3.302 h -5.67765 v -3.302 h -5.08 v 3.302 h -5.67764 v -3.302 h -5.08 v 3.302 h -5.67765" />
    <path
       inkscape:connector-curvature="0"
       id="path111"
       inkscape:label="part"
       style="fill:none;stroke:#000000;stroke-width:0.0254;stroke-miterlimit:4;stroke-dasharray:none"
       d="m 281.00618,125.55 v -6.53143 h 3.302 v -5.08 h -3.302 v -6.53143 h 3.302 v -5.08 h -3.302 v -6.531426 h 3.302 v -5.08 h -3.302 v -6.531428 h 3.302 v -5.08 h -3.302 v -6.531429 h 3.302 v -5.08 h -3.302 v -6.531428 h 3.302 v -5.08 h -3.302 V 52.652" />
  </g>
  <g
     id="g3765"
     inkscape:groupmode="layer"
     inkscape:label="newlayer"
     transform="translate(0,-25.4)" />
  <g
     id="g3870"
     inkscape:groupmode="layer"
     inkscape:label="newlayer"
     transform="translate(0,-25.4)" />
  <g
     id="g195"
     inkscape:groupmode="layer"
     inkscape:label="newlayer" />
  <g
     id="g1356"
     inkscape:groupmode="layer"
     inkscape:label="newlayer" />
  <g
     id="g140"
     inkscape:groupmode="layer"
     inkscape:label="newlayer" />
  <g
     id="g119"
     inkscape:groupmode="layer"
     inkscape:label="newlayer" />
</svg>
